<svg width="53" height="52" viewBox="0 0 53 52" fill="none" xmlns="http://www.w3.org/2000/svg">
<path d="M0 20C0 8.9543 8.95431 0 20 0H43C48.5229 0 53 4.47715 53 10V32C53 43.0457 44.0457 52 33 52H10C4.47715 52 0 47.5228 0 42V20Z" fill="#F1EFEF"/>
<mask id="mask0_903_14371" style="mask-type:alpha" maskUnits="userSpaceOnUse" x="0" y="0" width="53" height="52">
<path d="M0 20C0 8.9543 8.95431 0 20 0H43C48.5229 0 53 4.47715 53 10V32C53 43.0457 44.0457 52 33 52H10C4.47715 52 0 47.5228 0 42V20Z" fill="#F1EFEF"/>
</mask>
<g mask="url(#mask0_903_14371)">
<path d="M20.2952 20.96C21.4712 19.1307 23.9539 19 24.9992 19C26.0445 19 27.6176 19 29.3162 20.96C31.7939 23.8347 30.0953 26.84 29.0499 28.6693C28.0046 30.6293 28.0046 32.1973 28.7886 33.2427C30.0953 34.8107 31.5326 35.072 33.3619 35.3333C34.2765 35.464 34.6685 35.856 34.9299 36.5093C35.8078 38.6313 41.5939 52.1893 43.2926 56.5013C43.5539 57.1547 43.5539 57.808 43.5539 57.808C43.5539 58.2 43.2925 58.7227 43.0312 58.984C36.7592 66.04 32.3166 68 24.9992 68C17.6819 68 13.2393 66.04 6.96719 58.984C6.70586 58.7227 6.43956 58.2 6.44453 57.808C6.44453 57.808 6.44453 57.1547 6.71089 56.5013C8.40453 52.1893 13.5259 40.0972 15.0685 36.5093C15.3299 35.856 15.7219 35.464 16.6365 35.3333C18.4659 35.072 19.9032 34.8107 21.2099 33.2427C21.7325 32.5893 21.9846 31.4239 21.8682 31.152C21.7198 30.7682 21.4463 30.7501 20.6871 30.8907C20.2951 30.8907 19.6418 30.76 19.6418 30.1067C19.6418 29.4533 19.6418 28.016 19.5111 27.8853C19.3805 27.624 18.8527 27.624 18.8578 27.232C18.8578 27.1013 19.7725 25.4027 19.7725 25.1413C19.7725 24.88 19.5111 24.488 19.3805 24.3573C19.2498 24.2267 19.3805 22.3973 20.2952 20.96Z" fill="#191C23"/>
<path d="M20.2952 20.96C21.4712 19.1307 23.9539 19 24.9992 19C26.0445 19 27.6176 19 29.3162 20.96C31.7939 23.8347 30.0953 26.84 29.0499 28.6693C28.0046 30.6293 28.0046 32.1973 28.7886 33.2427C30.0953 34.8107 31.5326 35.072 33.3619 35.3333C34.2765 35.464 34.6685 35.856 34.9299 36.5093C35.8078 38.6313 41.5939 52.1893 43.2926 56.5013C43.5539 57.1547 43.5539 57.808 43.5539 57.808C43.5539 58.2 43.2925 58.7227 43.0312 58.984C36.7592 66.04 32.3166 68 24.9992 68C17.6819 68 13.2393 66.04 6.96719 58.984C6.70586 58.7227 6.43956 58.2 6.44453 57.808C6.44453 57.808 6.44453 57.1547 6.71089 56.5013C8.40453 52.1893 13.5259 40.0972 15.0685 36.5093C15.3299 35.856 15.7219 35.464 16.6365 35.3333C18.4659 35.072 19.9032 34.8107 21.2099 33.2427C21.7325 32.5893 21.9846 31.4239 21.8682 31.152C21.7198 30.7682 21.4463 30.7501 20.6871 30.8907C20.2951 30.8907 19.6418 30.76 19.6418 30.1067C19.6418 29.4533 19.6418 28.016 19.5111 27.8853C19.3805 27.624 18.8527 27.624 18.8578 27.232C18.8578 27.1013 19.7725 25.4027 19.7725 25.1413C19.7725 24.88 19.5111 24.488 19.3805 24.3573C19.2498 24.2267 19.3805 22.3973 20.2952 20.96Z" fill="#2F2F2F"/>
<path d="M20.2952 20.96C21.4712 19.1307 23.9539 19 24.9992 19C26.0445 19 27.6176 19 29.3162 20.96C31.7939 23.8347 30.0953 26.84 29.0499 28.6693C28.0046 30.6293 28.0046 32.1973 28.7886 33.2427C30.0953 34.8107 31.5326 35.072 33.3619 35.3333C34.2765 35.464 34.6685 35.856 34.9299 36.5093C35.8078 38.6313 41.5939 52.1893 43.2926 56.5013C43.5539 57.1547 43.5539 57.808 43.5539 57.808C43.5539 58.2 43.2925 58.7227 43.0312 58.984C36.7592 66.04 32.3166 68 24.9992 68C17.6819 68 13.2393 66.04 6.96719 58.984C6.70586 58.7227 6.43956 58.2 6.44453 57.808C6.44453 57.808 6.44453 57.1547 6.71089 56.5013C8.40453 52.1893 13.5259 40.0972 15.0685 36.5093C15.3299 35.856 15.7219 35.464 16.6365 35.3333C18.4659 35.072 19.9032 34.8107 21.2099 33.2427C21.7325 32.5893 21.9846 31.4239 21.8682 31.152C21.7198 30.7682 21.4463 30.7501 20.6871 30.8907C20.2951 30.8907 19.6418 30.76 19.6418 30.1067C19.6418 29.4533 19.6418 28.016 19.5111 27.8853C19.3805 27.624 18.8527 27.624 18.8578 27.232C18.8578 27.1013 19.7725 25.4027 19.7725 25.1413C19.7725 24.88 19.5111 24.488 19.3805 24.3573C19.2498 24.2267 19.3805 22.3973 20.2952 20.96Z" fill="#434343"/>
</g>
</svg>
