<svg width="231" height="204" viewBox="0 0 231 204" fill="none" xmlns="http://www.w3.org/2000/svg">
<g opacity="0.3">
<path d="M140.24 -5.61426H139.69V11.6119H140.24V-5.61426Z" fill="white"/>
<path d="M140.24 105.716H139.69V122.942H140.24V105.716Z" fill="white"/>
<path d="M125.722 -23.6042L125.181 -23.5088L131.515 12.373L132.057 12.2777L125.722 -23.6042Z" fill="white"/>
<path d="M148.417 104.951L147.876 105.046L154.21 140.928L154.752 140.832L148.417 104.951Z" fill="white"/>
<path d="M118.302 -1.89388L117.786 -1.70605L123.684 14.4813L124.201 14.2934L118.302 -1.89388Z" fill="white"/>
<path d="M156.427 102.717L155.911 102.905L161.809 119.093L162.326 118.905L156.427 102.717Z" fill="white"/>
<path d="M98.4987 -13.8419L98.0225 -13.5673L116.262 17.9866L116.738 17.712L98.4987 -13.8419Z" fill="white"/>
<path d="M163.848 99.2098L163.372 99.4844L181.612 131.038L182.088 130.764L163.848 99.2098Z" fill="white"/>
<path d="M98.9617 9.0883L98.5405 9.4413L109.627 22.6373L110.048 22.2843L98.9617 9.0883Z" fill="white"/>
<path d="M170.61 94.3726L170.188 94.7256L181.274 107.922L181.696 107.569L170.61 94.3726Z" fill="white"/>
<path d="M76.2612 4.63116L75.9078 5.05185L103.852 28.472L104.206 28.0514L76.2612 4.63116Z" fill="white"/>
<path d="M176.381 88.5422L176.028 88.9629L203.972 112.383L204.326 111.962L176.381 88.5422Z" fill="white"/>
<path d="M84.5481 26.0252L84.2732 26.5008L99.2093 35.1139L99.4842 34.6383L84.5481 26.0252Z" fill="white"/>
<path d="M181.078 81.6914L180.803 82.167L195.739 90.7801L196.014 90.3045L181.078 81.6914Z" fill="white"/>
<path d="M61.6902 29.5904L61.5022 30.1064L95.7811 42.5681L95.9691 42.052L61.6902 29.5904Z" fill="white"/>
<path d="M184.508 74.2378L184.32 74.7538L218.598 87.2154L218.786 86.6994L184.508 74.2378Z" fill="white"/>
<path d="M76.8054 46.8635L76.71 47.4043L93.6947 50.3956L93.7902 49.8548L76.8054 46.8635Z" fill="white"/>
<path d="M186.576 66.1945L186.481 66.7354L203.466 69.7267L203.561 69.1858L186.576 66.1945Z" fill="white"/>
<path d="M93.0264 58.0184H56.5476V58.5675H93.0264V58.0184Z" fill="white"/>
<path d="M223.722 58.0184H187.243V58.5675H223.722V58.0184Z" fill="white"/>
<path d="M93.6397 66.0955L76.6555 69.0897L76.751 69.6305L93.7352 66.6363L93.6397 66.0955Z" fill="white"/>
<path d="M203.414 46.7618L186.43 49.7561L186.525 50.2969L203.509 47.3026L203.414 46.7618Z" fill="white"/>
<path d="M95.7225 74.0336L61.4414 86.4893L61.6294 87.0053L95.9104 74.5497L95.7225 74.0336Z" fill="white"/>
<path d="M218.538 29.3861L184.257 41.8417L184.445 42.3578L218.726 29.9022L218.538 29.3861Z" fill="white"/>
<path d="M99.0604 81.4178L84.1228 90.0283L84.3976 90.504L99.3353 81.8935L99.0604 81.4178Z" fill="white"/>
<path d="M195.61 25.7279L180.674 34.341L180.949 34.8166L195.885 26.2035L195.61 25.7279Z" fill="white"/>
<path d="M103.75 88.147L75.8052 111.567L76.1586 111.988L104.103 88.5677L103.75 88.147Z" fill="white"/>
<path d="M203.866 4.23506L175.921 27.6552L176.275 28.0759L204.219 4.65574L203.866 4.23506Z" fill="white"/>
<path d="M109.416 93.9387L98.3301 107.135L98.7513 107.488L109.837 94.2917L109.416 93.9387Z" fill="white"/>
<path d="M181.427 7.2495L170.389 20.5137L170.813 20.8651L181.851 7.60098L181.427 7.2495Z" fill="white"/>
<path d="M116.125 98.6712L97.8743 130.219L98.3503 130.493L116.601 98.9459L116.125 98.6712Z" fill="white"/>
<path d="M181.467 -14.3635L163.228 17.1904L163.704 17.465L181.943 -14.0889L181.467 -14.3635Z" fill="white"/>
<path d="M123.431 102.179L117.527 118.364L118.043 118.552L123.948 102.367L123.431 102.179Z" fill="white"/>
<path d="M161.549 -2.44019L155.653 13.7482L156.169 13.9359L162.065 -2.25245L161.549 -2.44019Z" fill="white"/>
<path d="M129.125 103.794L122.923 139.501L123.462 139.594L129.664 103.888L129.125 103.794Z" fill="white"/>
<path d="M152.343 -24.1529L146.142 11.5537L146.681 11.6471L152.882 -24.0596L152.343 -24.1529Z" fill="white"/>
<path d="M139.964 101.816C115.938 101.816 96.3877 82.292 96.3877 58.2917C96.3877 34.2914 115.938 14.7676 139.964 14.7676C163.99 14.7676 183.543 34.3003 183.543 58.2917C183.543 82.2831 163.993 101.816 139.964 101.816ZM139.964 15.3167C116.241 15.3167 96.9405 34.5942 96.9405 58.2917C96.9405 81.9892 116.241 101.267 139.964 101.267C163.687 101.267 182.999 81.9863 182.999 58.2917C182.999 34.5971 163.681 15.3167 139.964 15.3167V15.3167Z" fill="white"/>
<path d="M139.964 96.8343C118.687 96.8343 101.375 79.5428 101.375 58.2913C101.375 50.6682 103.638 43.2163 107.878 36.8779C112.119 30.5396 118.145 25.5994 125.196 22.6822C132.248 19.765 140.007 19.0017 147.492 20.4889C154.978 21.9761 161.854 25.6469 167.25 31.0373C172.647 36.4276 176.322 43.2953 177.811 50.7719C179.3 58.2485 178.536 65.9982 175.615 73.0411C172.695 80.0839 167.749 86.1034 161.403 90.3386C155.057 94.5738 147.596 96.8343 139.964 96.8343V96.8343ZM139.964 20.2975C118.99 20.2975 101.922 37.3426 101.922 58.2943C101.922 79.2459 118.984 96.291 139.964 96.291C150.053 96.291 159.729 92.2878 166.864 85.162C173.998 78.0363 178.006 68.3716 178.006 58.2943C178.006 48.2169 173.998 38.5522 166.864 31.4264C159.729 24.3007 150.053 20.2975 139.964 20.2975Z" fill="white"/>
<path d="M24.5 49.4893C24.4346 55.9131 21.633 57.4963 16.0951 54.2389C21.6429 57.5042 21.6112 60.7161 16 63.8746C21.6033 60.7082 24.3772 62.3419 24.3217 68.7756C24.3871 62.3518 27.1877 60.7686 32.7237 64.026C27.1877 60.7587 27.2204 57.5468 32.8217 54.3903C27.2105 57.5468 24.4366 55.9131 24.5 49.4893Z" fill="white"/>
<path d="M170.439 75.3009C167.856 79.9611 164.24 83.9692 159.867 87.0184C155.494 90.0675 150.481 92.0768 145.211 92.8925C139.94 93.7081 134.553 93.3085 129.462 91.7242C124.37 90.1399 119.709 87.4129 115.835 83.752C111.961 80.0911 108.977 75.5933 107.112 70.6031C105.247 65.6129 104.549 60.2625 105.073 54.9616C105.597 49.6607 107.328 44.5499 110.135 40.0203C112.941 35.4908 116.748 31.6627 121.264 28.829C116.283 35.5162 113.93 43.7961 114.653 52.0997C115.376 60.4033 119.123 68.1536 125.185 73.882C131.246 79.6104 139.201 82.9189 147.542 83.1804C155.883 83.4419 164.03 80.6383 170.439 75.3009V75.3009Z" fill="white"/>
<path d="M153.534 47.0789C158.549 47.0789 162.614 43.0187 162.614 38.0102C162.614 33.0016 158.549 28.9414 153.534 28.9414C148.52 28.9414 144.455 33.0016 144.455 38.0102C144.455 43.0187 148.52 47.0789 153.534 47.0789Z" fill="white"/>
<path d="M228.013 153.797C228.013 153.905 227.981 154.011 227.921 154.101C227.861 154.191 227.775 154.261 227.675 154.302C227.575 154.343 227.465 154.354 227.359 154.333C227.253 154.311 227.155 154.259 227.079 154.182C227.002 154.106 226.951 154.008 226.93 153.902C226.909 153.796 226.92 153.686 226.962 153.586C227.004 153.486 227.075 153.401 227.165 153.341C227.255 153.282 227.361 153.25 227.47 153.251C227.541 153.251 227.612 153.265 227.678 153.292C227.745 153.32 227.805 153.36 227.855 153.411C227.906 153.462 227.946 153.522 227.973 153.588C228 153.655 228.014 153.726 228.013 153.797V153.797Z" fill="white"/>
<path d="M220.081 60.2205C220.081 60.4102 220.025 60.5956 219.919 60.7532C219.814 60.9109 219.664 61.0338 219.488 61.1064C219.313 61.1789 219.12 61.1979 218.934 61.1609C218.748 61.1239 218.577 61.0326 218.442 60.8985C218.308 60.7644 218.217 60.5936 218.18 60.4076C218.143 60.2216 218.162 60.0288 218.234 59.8536C218.307 59.6784 218.43 59.5287 218.588 59.4233C218.746 59.3179 218.931 59.2617 219.121 59.2617C219.376 59.2617 219.62 59.3627 219.8 59.5426C219.98 59.7224 220.081 59.9662 220.081 60.2205V60.2205Z" fill="white"/>
<path d="M200.118 18.4927C200.482 18.4927 200.778 18.1976 200.778 17.8337C200.778 17.4697 200.482 17.1747 200.118 17.1747C199.753 17.1747 199.458 17.4697 199.458 17.8337C199.458 18.1976 199.753 18.4927 200.118 18.4927Z" fill="white"/>
<path d="M227.05 0.405331C227.051 0.569387 227.003 0.729914 226.912 0.866566C226.821 1.00322 226.692 1.10984 226.54 1.17289C226.388 1.23594 226.221 1.25258 226.06 1.22072C225.899 1.18886 225.751 1.10992 225.635 0.993919C225.519 0.877914 225.44 0.730071 225.408 0.569138C225.376 0.408205 225.393 0.24144 225.456 0.089984C225.519 -0.0614717 225.626 -0.190787 225.762 -0.281566C225.899 -0.372344 226.06 -0.420504 226.224 -0.419917C226.443 -0.419917 226.654 -0.332964 226.808 -0.178202C226.963 -0.0234392 227.05 0.186464 227.05 0.405331Z" fill="white"/>
<path d="M198.653 5.53833C199.357 5.53833 199.928 4.96817 199.928 4.26484C199.928 3.56152 199.357 2.99136 198.653 2.99136C197.949 2.99136 197.378 3.56152 197.378 4.26484C197.378 4.96817 197.949 5.53833 198.653 5.53833Z" fill="white"/>
<path d="M93.3562 7.95988C93.3562 8.13602 93.3039 8.30819 93.206 8.45464C93.108 8.60109 92.9687 8.71523 92.8058 8.78263C92.6429 8.85003 92.4636 8.86767 92.2907 8.83331C92.1177 8.79895 91.9588 8.71413 91.8341 8.58958C91.7094 8.46504 91.6245 8.30637 91.5901 8.13362C91.5557 7.96087 91.5734 7.78181 91.6409 7.61908C91.7084 7.45635 91.8226 7.31726 91.9693 7.21941C92.1159 7.12155 92.2883 7.06934 92.4646 7.06934C92.7011 7.06934 92.9279 7.16316 93.0951 7.33017C93.2623 7.49718 93.3562 7.7237 93.3562 7.95988Z" fill="white"/>
<path d="M69.0745 18.3001C69.4734 18.3001 69.7967 17.9772 69.7967 17.5788C69.7967 17.1804 69.4734 16.8574 69.0745 16.8574C68.6756 16.8574 68.3523 17.1804 68.3523 17.5788C68.3523 17.9772 68.6756 18.3001 69.0745 18.3001Z" fill="white"/>
<path d="M55.7362 19.79C55.7362 20.0002 55.6738 20.2057 55.5569 20.3805C55.44 20.5552 55.2738 20.6914 55.0794 20.7719C54.885 20.8523 54.671 20.8733 54.4646 20.8323C54.2582 20.7913 54.0687 20.6901 53.9199 20.5415C53.771 20.3929 53.6697 20.2035 53.6287 19.9974C53.5876 19.7912 53.6087 19.5776 53.6892 19.3834C53.7697 19.1892 53.9061 19.0232 54.0811 18.9064C54.2561 18.7897 54.4618 18.7273 54.6722 18.7273C54.9544 18.7273 55.225 18.8393 55.4246 19.0386C55.6241 19.2379 55.7362 19.5082 55.7362 19.79V19.79Z" fill="white"/>
<path d="M54.479 42.6028C54.9616 42.6028 55.3528 42.2121 55.3528 41.7301C55.3528 41.2481 54.9616 40.8573 54.479 40.8573C53.9964 40.8573 53.6052 41.2481 53.6052 41.7301C53.6052 42.2121 53.9964 42.6028 54.479 42.6028Z" fill="white"/>
<path d="M63.2435 59.1613C63.2427 59.2269 63.216 59.2896 63.1693 59.3357C63.1226 59.3818 63.0595 59.4077 62.9938 59.4077C62.9284 59.4077 62.8656 59.3817 62.8194 59.3355C62.7731 59.2893 62.7471 59.2266 62.7471 59.1613C62.7471 59.0959 62.7731 59.0333 62.8194 58.987C62.8656 58.9408 62.9284 58.9149 62.9938 58.9149C63.0595 58.9149 63.1226 58.9407 63.1693 58.9869C63.216 59.033 63.2427 59.0957 63.2435 59.1613Z" fill="white"/>
<path d="M46.1038 77.993C46.1038 78.1798 46.0483 78.3625 45.9443 78.5178C45.8403 78.6731 45.6925 78.7941 45.5197 78.8654C45.3468 78.9368 45.1566 78.9553 44.9732 78.9186C44.7898 78.882 44.6214 78.7918 44.4893 78.6595C44.3573 78.5271 44.2675 78.3587 44.2314 78.1754C44.1952 77.9921 44.2144 77.8022 44.2864 77.6297C44.3584 77.4573 44.4799 77.3101 44.6358 77.2067C44.7916 77.1033 44.9746 77.0485 45.1616 77.049C45.2856 77.049 45.4084 77.0735 45.5229 77.121C45.6374 77.1684 45.7414 77.238 45.8289 77.3257C45.9164 77.4134 45.9857 77.5175 46.0329 77.632C46.0801 77.7465 46.1042 77.8692 46.1038 77.993V77.993Z" fill="white"/>
<path d="M57.766 89.9118C58.3766 89.9118 58.8716 89.4174 58.8716 88.8075C58.8716 88.1976 58.3766 87.7032 57.766 87.7032C57.1554 87.7032 56.6604 88.1976 56.6604 88.8075C56.6604 89.4174 57.1554 89.9118 57.766 89.9118Z" fill="white"/>
<path d="M29.3861 122.779C29.3861 122.85 29.365 122.92 29.3255 122.979C29.286 123.038 29.2298 123.084 29.1641 123.111C29.0984 123.138 29.0261 123.145 28.9563 123.131C28.8866 123.118 28.8225 123.083 28.7722 123.033C28.7219 122.983 28.6877 122.919 28.6738 122.849C28.6599 122.78 28.667 122.707 28.6942 122.642C28.7215 122.576 28.7676 122.52 28.8267 122.481C28.8858 122.441 28.9554 122.42 29.0265 122.42C29.0737 122.42 29.1205 122.429 29.1641 122.447C29.2077 122.465 29.2474 122.492 29.2808 122.525C29.3142 122.558 29.3407 122.598 29.3587 122.642C29.3768 122.685 29.3861 122.732 29.3861 122.779Z" fill="white"/>
<path d="M83.0937 119.015C83.0937 119.244 83.0259 119.467 82.8989 119.657C82.7719 119.847 82.5913 119.995 82.3801 120.082C82.1688 120.169 81.9363 120.192 81.7121 120.148C81.4878 120.103 81.2818 119.993 81.1201 119.832C80.9584 119.67 80.8483 119.464 80.8037 119.24C80.7591 119.016 80.782 118.784 80.8695 118.573C80.957 118.362 81.1052 118.182 81.2953 118.055C81.4854 117.928 81.709 117.86 81.9376 117.86C82.244 117.861 82.5376 117.983 82.7543 118.2C82.9709 118.416 83.093 118.709 83.0937 119.015Z" fill="white"/>
<path d="M84.889 144.099C84.889 144.238 84.8477 144.374 84.7703 144.49C84.6929 144.606 84.5829 144.696 84.4542 144.749C84.3254 144.802 84.1838 144.816 84.0472 144.789C83.9106 144.762 83.785 144.695 83.6865 144.596C83.588 144.498 83.5209 144.373 83.4938 144.236C83.4666 144.1 83.4805 143.958 83.5338 143.83C83.5872 143.701 83.6774 143.591 83.7933 143.514C83.9091 143.437 84.0453 143.396 84.1846 143.396C84.3712 143.396 84.5499 143.471 84.6818 143.602C84.8137 143.734 84.8882 143.913 84.889 144.099V144.099Z" fill="white"/>
<path d="M84.235 154.961C84.235 155.092 84.196 155.221 84.1228 155.33C84.0497 155.44 83.9457 155.525 83.8241 155.575C83.7024 155.626 83.5686 155.639 83.4394 155.613C83.3103 155.587 83.1917 155.524 83.0986 155.431C83.0054 155.338 82.942 155.22 82.9164 155.091C82.8907 154.962 82.9039 154.828 82.9542 154.706C83.0046 154.585 83.09 154.481 83.1994 154.408C83.3089 154.335 83.4376 154.296 83.5693 154.296C83.7459 154.296 83.9152 154.366 84.04 154.491C84.1649 154.615 84.235 154.785 84.235 154.961V154.961Z" fill="white"/>
<path d="M88.3781 149.382C89.1135 149.382 89.7096 148.787 89.7096 148.053C89.7096 147.318 89.1135 146.723 88.3781 146.723C87.6428 146.723 87.0466 147.318 87.0466 148.053C87.0466 148.787 87.6428 149.382 88.3781 149.382Z" fill="white"/>
<path d="M98.2364 116.486C98.366 116.486 98.4712 116.381 98.4712 116.251C98.4712 116.122 98.366 116.017 98.2364 116.017C98.1067 116.017 98.0016 116.122 98.0016 116.251C98.0016 116.381 98.1067 116.486 98.2364 116.486Z" fill="white"/>
<path d="M115.587 159.018C115.59 159.147 115.554 159.275 115.484 159.384C115.415 159.492 115.314 159.578 115.195 159.629C115.076 159.681 114.945 159.696 114.817 159.672C114.69 159.648 114.573 159.587 114.48 159.497C114.388 159.406 114.325 159.29 114.299 159.163C114.273 159.037 114.285 158.905 114.334 158.786C114.384 158.666 114.467 158.564 114.575 158.492C114.683 158.42 114.81 158.382 114.939 158.383C115.109 158.384 115.271 158.45 115.392 158.569C115.513 158.688 115.583 158.849 115.587 159.018V159.018Z" fill="white"/>
<path d="M128.801 128.969C128.801 129.172 128.74 129.372 128.627 129.541C128.513 129.711 128.352 129.843 128.164 129.921C127.975 129.998 127.767 130.019 127.567 129.979C127.367 129.939 127.183 129.84 127.039 129.696C126.895 129.552 126.797 129.368 126.758 129.168C126.718 128.968 126.739 128.76 126.818 128.572C126.896 128.384 127.029 128.223 127.199 128.111C127.369 127.998 127.568 127.938 127.773 127.938C127.908 127.938 128.042 127.965 128.167 128.017C128.292 128.069 128.405 128.145 128.501 128.24C128.596 128.336 128.672 128.45 128.723 128.575C128.775 128.7 128.801 128.833 128.801 128.969V128.969Z" fill="white"/>
<path d="M156.753 123.132C156.753 123.33 156.695 123.524 156.585 123.689C156.476 123.854 156.319 123.983 156.136 124.059C155.953 124.135 155.751 124.155 155.557 124.117C155.362 124.078 155.183 123.983 155.043 123.843C154.903 123.703 154.807 123.524 154.769 123.33C154.73 123.135 154.75 122.934 154.827 122.751C154.903 122.568 155.032 122.412 155.197 122.302C155.362 122.193 155.556 122.134 155.754 122.135C156.019 122.136 156.272 122.241 156.46 122.428C156.647 122.615 156.752 122.868 156.753 123.132Z" fill="white"/>
<path d="M164.239 140.905C164.24 141.147 164.169 141.383 164.035 141.585C163.9 141.786 163.709 141.944 163.486 142.037C163.262 142.13 163.016 142.154 162.778 142.108C162.54 142.061 162.322 141.944 162.15 141.774C161.979 141.603 161.862 141.385 161.814 141.147C161.767 140.91 161.791 140.664 161.883 140.44C161.976 140.217 162.133 140.026 162.334 139.891C162.536 139.756 162.773 139.685 163.015 139.685C163.339 139.685 163.65 139.813 163.88 140.042C164.109 140.271 164.239 140.581 164.239 140.905V140.905Z" fill="white"/>
<path d="M172.478 114.378C172.478 114.402 172.474 114.426 172.465 114.448C172.456 114.47 172.443 114.491 172.426 114.508C172.409 114.525 172.389 114.539 172.367 114.548C172.344 114.557 172.321 114.562 172.296 114.562C172.271 114.565 172.244 114.563 172.219 114.555C172.194 114.548 172.171 114.535 172.151 114.517C172.132 114.5 172.116 114.479 172.105 114.455C172.094 114.431 172.089 114.405 172.089 114.379C172.089 114.353 172.094 114.327 172.105 114.304C172.116 114.28 172.132 114.258 172.151 114.241C172.171 114.224 172.194 114.211 172.219 114.203C172.244 114.196 172.271 114.193 172.296 114.197C172.32 114.197 172.344 114.201 172.366 114.211C172.388 114.22 172.408 114.233 172.425 114.25C172.442 114.267 172.455 114.287 172.464 114.309C172.473 114.331 172.478 114.354 172.478 114.378Z" fill="white"/>
<path d="M181.679 114.449C181.68 114.661 181.618 114.868 181.501 115.044C181.383 115.22 181.217 115.358 181.021 115.439C180.826 115.52 180.61 115.542 180.403 115.501C180.195 115.46 180.004 115.358 179.854 115.209C179.704 115.06 179.602 114.869 179.56 114.662C179.519 114.455 179.54 114.24 179.621 114.044C179.702 113.849 179.839 113.682 180.015 113.564C180.191 113.447 180.398 113.384 180.61 113.384C180.893 113.384 181.164 113.496 181.365 113.696C181.566 113.896 181.679 114.167 181.679 114.449Z" fill="white"/>
<path d="M182.544 204C182.841 204 183.082 203.76 183.082 203.463C183.082 203.166 182.841 202.926 182.544 202.926C182.247 202.926 182.006 203.166 182.006 203.463C182.006 203.76 182.247 204 182.544 204Z" fill="white"/>
<path d="M159.142 185.753C159.261 185.753 159.356 185.657 159.356 185.539C159.356 185.421 159.261 185.325 159.142 185.325C159.024 185.325 158.928 185.421 158.928 185.539C158.928 185.657 159.024 185.753 159.142 185.753Z" fill="white"/>
<path d="M152.143 194.026C152.144 194.101 152.122 194.174 152.081 194.237C152.04 194.299 151.981 194.348 151.912 194.377C151.843 194.406 151.767 194.414 151.694 194.399C151.62 194.385 151.553 194.35 151.5 194.297C151.447 194.244 151.41 194.177 151.396 194.104C151.381 194.031 151.388 193.955 151.417 193.886C151.445 193.817 151.493 193.758 151.556 193.716C151.618 193.675 151.691 193.652 151.766 193.652C151.865 193.652 151.961 193.692 152.031 193.762C152.102 193.832 152.142 193.927 152.143 194.026V194.026Z" fill="white"/>
<path d="M150 186.468C150.227 186.468 150.411 186.284 150.411 186.058C150.411 185.832 150.227 185.648 150 185.648C149.774 185.648 149.59 185.832 149.59 186.058C149.59 186.284 149.774 186.468 150 186.468Z" fill="white"/>
<path d="M140.136 154.412C140.136 154.513 140.106 154.612 140.05 154.696C139.994 154.78 139.914 154.845 139.821 154.884C139.727 154.922 139.624 154.932 139.525 154.913C139.426 154.893 139.335 154.844 139.263 154.773C139.192 154.702 139.143 154.611 139.124 154.512C139.104 154.412 139.114 154.31 139.153 154.217C139.191 154.123 139.257 154.043 139.341 153.987C139.425 153.931 139.524 153.901 139.625 153.901C139.761 153.901 139.891 153.955 139.986 154.051C140.082 154.147 140.136 154.277 140.136 154.412Z" fill="white"/>
<path d="M112.08 166.452C112.594 166.452 113.01 166.036 113.01 165.523C113.01 165.01 112.594 164.594 112.08 164.594C111.566 164.594 111.15 165.01 111.15 165.523C111.15 166.036 111.566 166.452 112.08 166.452Z" fill="white"/>
<path d="M95.0474 157.879C95.0474 158.007 95.0092 158.133 94.9377 158.24C94.8662 158.347 94.7646 158.43 94.6456 158.479C94.5267 158.528 94.3958 158.541 94.2696 158.516C94.1433 158.491 94.0273 158.429 93.9363 158.338C93.8453 158.247 93.7833 158.131 93.7582 158.005C93.7331 157.879 93.7459 157.749 93.7952 157.63C93.8445 157.511 93.9279 157.409 94.0349 157.338C94.142 157.267 94.2678 157.228 94.3965 157.228C94.5692 157.228 94.7347 157.297 94.8568 157.419C94.9788 157.541 95.0474 157.706 95.0474 157.879V157.879Z" fill="white"/>
<path d="M91.4601 143.158C91.4601 143.348 91.4036 143.534 91.2978 143.692C91.192 143.851 91.0416 143.974 90.8656 144.047C90.6897 144.119 90.4961 144.139 90.3093 144.101C90.1225 144.064 89.9509 143.973 89.8162 143.838C89.6815 143.704 89.5898 143.532 89.5527 143.346C89.5155 143.159 89.5346 142.966 89.6075 142.79C89.6804 142.614 89.8038 142.464 89.9621 142.358C90.1205 142.253 90.3067 142.196 90.4971 142.196C90.7525 142.196 90.9974 142.298 91.178 142.478C91.3586 142.658 91.4601 142.903 91.4601 143.158V143.158Z" fill="white"/>
<path d="M84.3659 124.833C84.9667 124.833 85.4537 124.347 85.4537 123.747C85.4537 123.147 84.9667 122.66 84.3659 122.66C83.7651 122.66 83.2781 123.147 83.2781 123.747C83.2781 124.347 83.7651 124.833 84.3659 124.833Z" fill="white"/>
<path d="M71.4464 106.069C71.553 106.069 71.6395 105.983 71.6395 105.876C71.6395 105.77 71.553 105.683 71.4464 105.683C71.3397 105.683 71.2532 105.77 71.2532 105.876C71.2532 105.983 71.3397 106.069 71.4464 106.069Z" fill="white"/>
<path d="M44.9417 98.7521C44.9417 98.9036 44.8968 99.0517 44.8125 99.1776C44.7283 99.3036 44.6085 99.4017 44.4684 99.4597C44.3283 99.5177 44.1741 99.5328 44.0254 99.5033C43.8766 99.4737 43.74 99.4008 43.6328 99.2937C43.5255 99.1866 43.4525 99.0501 43.4229 98.9015C43.3933 98.753 43.4085 98.599 43.4665 98.459C43.5246 98.3191 43.6229 98.1995 43.749 98.1153C43.8751 98.0312 44.0233 97.9863 44.175 97.9863C44.3781 97.987 44.5727 98.068 44.7163 98.2114C44.8599 98.3549 44.941 98.5492 44.9417 98.7521Z" fill="white"/>
<path d="M53.3823 91.224C53.3823 91.4044 53.3285 91.5807 53.2277 91.7305C53.127 91.8802 52.9839 91.9966 52.8167 92.0648C52.6495 92.133 52.4657 92.1499 52.2888 92.1134C52.1119 92.0769 51.9499 91.9886 51.8235 91.8598C51.697 91.7309 51.6119 91.5674 51.5788 91.3901C51.5458 91.2127 51.5663 91.0295 51.6379 90.8639C51.7095 90.6983 51.8288 90.5576 51.9807 90.46C52.1326 90.3624 52.3101 90.3121 52.4907 90.3156C52.7288 90.3203 52.9556 90.4181 53.1223 90.5879C53.289 90.7578 53.3824 90.9862 53.3823 91.224V91.224Z" fill="white"/>
<path d="M58.2863 69.2806C58.3963 69.2806 58.4854 69.1916 58.4854 69.0817C58.4854 68.9719 58.3963 68.8828 58.2863 68.8828C58.1763 68.8828 58.0872 68.9719 58.0872 69.0817C58.0872 69.1916 58.1763 69.2806 58.2863 69.2806Z" fill="white"/>
<path d="M42.4214 45.1293C42.422 45.2685 42.3812 45.4049 42.3042 45.521C42.2271 45.637 42.1173 45.7277 41.9887 45.7814C41.86 45.8351 41.7183 45.8494 41.5815 45.8226C41.4446 45.7958 41.3189 45.729 41.2201 45.6308C41.1212 45.5325 41.0539 45.4072 41.0264 45.2706C40.999 45.134 41.0128 44.9924 41.066 44.8637C41.1193 44.735 41.2095 44.6249 41.3254 44.5475C41.4413 44.4701 41.5776 44.4287 41.7171 44.4287C41.9034 44.4287 42.0821 44.5024 42.2141 44.6337C42.3461 44.765 42.4207 44.9432 42.4214 45.1293V45.1293Z" fill="white"/>
<path d="M195.838 162.875C195.838 163.092 195.774 163.304 195.653 163.485C195.532 163.666 195.36 163.806 195.159 163.889C194.958 163.973 194.737 163.994 194.524 163.952C194.311 163.91 194.115 163.805 193.961 163.651C193.807 163.498 193.702 163.302 193.66 163.089C193.618 162.876 193.639 162.655 193.723 162.454C193.806 162.254 193.947 162.082 194.128 161.961C194.308 161.841 194.521 161.776 194.739 161.776C195.03 161.776 195.31 161.892 195.516 162.098C195.722 162.304 195.838 162.583 195.838 162.875V162.875Z" fill="white"/>
<path d="M187.219 182.051C187.72 182.051 188.126 181.646 188.126 181.146C188.126 180.646 187.72 180.24 187.219 180.24C186.719 180.24 186.313 180.646 186.313 181.146C186.313 181.646 186.719 182.051 187.219 182.051Z" fill="white"/>
<path d="M173.191 150.283C173.191 150.408 173.154 150.53 173.084 150.634C173.015 150.738 172.916 150.819 172.8 150.867C172.685 150.915 172.557 150.927 172.435 150.903C172.312 150.878 172.199 150.818 172.11 150.73C172.022 150.641 171.962 150.529 171.937 150.406C171.913 150.283 171.925 150.156 171.973 150.041C172.021 149.925 172.102 149.826 172.206 149.757C172.31 149.687 172.433 149.65 172.558 149.65C172.641 149.65 172.724 149.666 172.801 149.698C172.878 149.729 172.948 149.776 173.007 149.835C173.065 149.894 173.112 149.963 173.144 150.04C173.175 150.117 173.192 150.2 173.191 150.283V150.283Z" fill="white"/>
<path d="M162.563 179.632C162.564 179.888 162.488 180.138 162.347 180.35C162.205 180.563 162.003 180.729 161.767 180.827C161.531 180.925 161.271 180.951 161.02 180.902C160.769 180.852 160.538 180.73 160.357 180.549C160.176 180.369 160.053 180.139 160.003 179.888C159.952 179.638 159.978 179.378 160.076 179.142C160.173 178.905 160.339 178.704 160.552 178.562C160.764 178.42 161.015 178.344 161.27 178.344C161.44 178.343 161.608 178.376 161.765 178.441C161.922 178.506 162.064 178.6 162.184 178.72C162.304 178.84 162.4 178.982 162.465 179.138C162.53 179.295 162.563 179.463 162.563 179.632V179.632Z" fill="white"/>
</g>
</svg>
